<?xml version="1.0" standalone="no"?><!DOCTYPE svg PUBLIC "-//W3C//DTD SVG 1.1//EN" "http://www.w3.org/Graphics/SVG/1.1/DTD/svg11.dtd"><svg t="1739976650877" class="icon" viewBox="0 0 1024 1024" version="1.1" xmlns="http://www.w3.org/2000/svg" p-id="10750" xmlns:xlink="http://www.w3.org/1999/xlink" width="200" height="200"><path d="M352.87 884.27a34.42 34.42 0 0 1-8.27-1l-0.53-0.14-230-65.74-0.27-0.08a34.17 34.17 0 0 1-24.23-31.92V433.36a33.81 33.81 0 0 1 13.55-26.92 33.32 33.32 0 0 1 29.42-5.44l221.39 63 19-4.08a16 16 0 0 1 6.7 31.29l-22.93 4.91a16 16 0 0 1-7.74-0.25l-225.28-64.1-0.14-0.05a1.23 1.23 0 0 0-1.08 0.2l-0.27 0.21a1.63 1.63 0 0 0-0.66 1.29v351.29a2.25 2.25 0 0 0 1.51 2l229.39 65.57a2.24 2.24 0 0 0 0.93 0l0.41-0.1 309.3-68.57a34.6 34.6 0 0 1 16.25 0.05l0.56 0.15 220.37 62.88h0.14a1.19 1.19 0 0 0 1.07-0.21l0.27-0.2a1.63 1.63 0 0 0 0.66-1.29V494a2 2 0 0 0-1.41-1.84l-228.81-65.42a2.46 2.46 0 0 0-1 0l-0.28 0.07-24.37 5.53a16 16 0 0 1-7.08-31.21l24.25-5.5a34.64 34.64 0 0 1 16.29 0l0.57 0.15 229.38 65.54h0.15a33.88 33.88 0 0 1 24.35 32.09V845a33.78 33.78 0 0 1-13.55 26.92 33.3 33.3 0 0 1-29.44 5.45l-219.88-62.74a2.45 2.45 0 0 0-1 0l-0.36 0.09-309.29 68.6a34.59 34.59 0 0 1-8.04 0.95z" fill="#666666" p-id="10751"></path><path d="M353.38 884.35a16 16 0 0 1-16-16V480.46a16 16 0 1 1 32 0v387.89a16 16 0 0 1-16 16zM671.23 814.31a16 16 0 0 1-16-16V410.42a16 16 0 0 1 32 0v387.89a16 16 0 0 1-16 16z" fill="#666666" p-id="10752"></path><path d="M497.24 565.2a16 16 0 0 1-13.31-7.13c-0.32-0.48-32.51-48.85-64.24-105.21-43.42-77.11-65.51-132.42-65.69-164.38a143.37 143.37 0 0 1 137.56-148.71c79-3.19 145.85 58.52 149 137.52 0.15 3.71 0.15 7.47 0 11.18-0.15 32-22.26 87.28-65.73 164.4-31.77 56.35-64 104.73-64.31 105.21a16 16 0 0 1-13.28 7.12z m0.18-393.55c-1.52 0-3.05 0-4.58 0.09A111.39 111.39 0 0 0 386 287.5v0.64c0 47.7 71.12 169 111.22 231.75 40.13-62.78 111.34-184 111.34-231.75v-0.63c0.12-3 0.12-6 0-8.94a111.38 111.38 0 0 0-111.14-106.92z" fill="#666666" p-id="10753"></path><path d="M497.21 354.46a66.32 66.32 0 1 1 66.32-66.32 66.39 66.39 0 0 1-66.32 66.32z m0-112.64a46.32 46.32 0 1 0 46.32 46.32 46.37 46.37 0 0 0-46.32-46.32zM497.31 626.43c-44.3 0-79-23.7-79-54 0-9.58 3.59-18.93 10.39-27.06l15.3 12.87c-3.8 4.55-5.73 9.34-5.73 14.23 0 18.41 27 34 59 34s59-15.55 59-34c0-5-2-9.85-5.94-14.47l15.22-13c7 8.23 10.72 17.72 10.72 27.45 0.04 30.28-34.66 53.98-78.96 53.98z" fill="#666666" p-id="10754"></path></svg>