<?xml version="1.0" standalone="no"?><!DOCTYPE svg PUBLIC "-//W3C//DTD SVG 1.1//EN" "http://www.w3.org/Graphics/SVG/1.1/DTD/svg11.dtd"><svg t="1739976450468" class="icon" viewBox="0 0 1024 1024" version="1.1" xmlns="http://www.w3.org/2000/svg" p-id="3742" xmlns:xlink="http://www.w3.org/1999/xlink" width="200" height="200"><path d="M511.075562 0a511.075427 511.075427 0 1 0 511.075427 511.359911A511.075427 511.075427 0 0 0 511.075562 0z m-137.405751 769.102375h-115.78497V421.178497h115.78497zM315.919568 373.527434h-0.71121a59.883873 59.883873 0 0 1-64.151132-60.168356c0-34.138075 25.88804-60.026115 65.573552-60.026115a60.168357 60.168357 0 0 1 64.862342 60.026115c0 33.569107-25.17683 60.168357-65.573552 60.168356z m475.372691 395.574941h-115.642729V582.4809c0-46.655369-16.642311-78.659814-58.745937-78.659814a63.866648 63.866648 0 0 0-59.599388 42.672594 78.37533 78.37533 0 0 0-3.840534 28.448395v194.444784h-115.927212s1.564662-315.208223 0-347.923878h115.927212v49.357966a114.789276 114.789276 0 0 1 104.26337-56.896791c76.2417 0 133.422975 49.784692 133.422976 156.466176v199.138769z" fill="#0077B5" p-id="3743"></path></svg>