<?xml version="1.0" encoding="UTF-8"?>
<svg xmlns="http://www.w3.org/2000/svg" version="1.1" viewBox="0 0 100 100">
  <defs>
    <style>
      .cls-1 {
        fill: #b3d676;
      }

      .cls-2 {
        fill: #f2ef8d;
      }

      .cls-3 {
        fill: #6790cb;
      }

      .cls-4 {
        fill: #174991;
      }

      .cls-5 {
        fill: #231f20;
      }

      .cls-6 {
        fill: #71d0f1;
      }

      .cls-7 {
        fill: #ccc;
      }

      .cls-8 {
        fill: #a5a5a5;
      }

      .cls-9 {
        fill: #53a0d8;
      }
    </style>
  </defs>
  <!-- Generator: Adobe Illustrator 28.7.5, SVG Export Plug-In . SVG Version: 1.2.0 Build 176)  -->
  <g>
    <g id="Layer_1">
      <rect x="11.9" y="11.02" width="6.88" height="76.54"/>
      <rect class="cls-5" x="83.9" y="11.02" width="4.2" height="12.93"/>
      <rect class="cls-4" x="83.9" y="23.96" width="4.2" height="12.93"/>
      <rect class="cls-3" x="83.9" y="36.54" width="4.2" height="12.93"/>
      <rect class="cls-6" x="83.9" y="49.12" width="4.2" height="12.93"/>
      <rect class="cls-1" x="83.9" y="62.06" width="4.2" height="12.93"/>
      <rect class="cls-2" x="83.9" y="74.64" width="4.2" height="12.93"/>
      <rect class="cls-8" x="18.77" y="11.02" width="32.57" height="76.54"/>
      <rect class="cls-7" x="51.34" y="11.02" width="32.57" height="76.54"/>
      <polygon class="cls-9" points="18.77 87.57 25.83 87.57 25.83 92.87 22.67 89.86 18.77 92.87 18.77 87.57"/>
      <path class="cls-5" d="M23.63,43.05v-12.62h4.27c1.62,0,2.67.06,3.16.19.76.19,1.38.6,1.9,1.23s.77,1.45.77,2.46c0,.78-.15,1.43-.44,1.96-.29.53-.67.94-1.12,1.24s-.92.5-1.38.6c-.63.12-1.55.19-2.76.19h-1.74v4.76h-2.66,0ZM26.29,32.57v3.58h1.45c1.05,0,1.75-.06,2.11-.19s.63-.33.83-.62c.2-.28.3-.61.3-.98,0-.46-.14-.84-.42-1.14s-.63-.48-1.07-.56c-.32-.05-.95-.09-1.91-.09h-1.29Z"/>
      <path class="cls-5" d="M37.26,36.81c0-1.29.2-2.36.6-3.23.3-.64.71-1.22,1.23-1.73.52-.51,1.08-.89,1.7-1.14.82-.33,1.77-.5,2.84-.5,1.94,0,3.5.57,4.66,1.73s1.75,2.76,1.75,4.81-.58,3.63-1.74,4.78c-1.15,1.15-2.71,1.73-4.64,1.73s-3.52-.57-4.67-1.72c-1.15-1.15-1.74-2.72-1.74-4.73h0ZM40,36.73c0,1.43.34,2.51,1.03,3.25s1.56,1.1,2.63,1.1,1.93-.37,2.61-1.1,1.02-1.83,1.02-3.3-.33-2.52-1-3.23-1.54-1.07-2.64-1.07-1.98.36-2.65,1.08-1,1.81-1,3.26Z"/>
      <path class="cls-5" d="M54.01,43.05v-12.62h5.6c1.41,0,2.43.11,3.07.34s1.15.63,1.53,1.21c.39.58.57,1.24.57,1.99,0,.94-.29,1.73-.87,2.34-.58.62-1.45,1-2.61,1.16.57.32,1.05.68,1.43,1.06s.88,1.07,1.52,2.04l1.61,2.46h-3.18l-1.92-2.75c-.68-.98-1.15-1.6-1.4-1.85-.26-.26-.52-.43-.8-.53-.28-.1-.73-.14-1.34-.14h-.54v5.27h-2.66ZM56.66,35.77h1.97c1.28,0,2.07-.05,2.39-.16s.56-.28.75-.54.27-.56.27-.94c0-.42-.11-.77-.35-1.03s-.57-.42-1-.49c-.21-.03-.86-.04-1.94-.04h-2.08v3.2h0Z"/>
      <path class="cls-5" d="M72.14,43.05v-10.48h-3.91v-2.13h10.47v2.13h-3.9v10.48h-2.66,0Z"/>
      <path class="cls-5" d="M23.65,64.2v-12.62h9.03v2.13h-6.37v2.99h5.5v2.13h-5.5v5.36h-2.66Z"/>
      <path class="cls-5" d="M34.47,57.97c0-1.29.2-2.36.6-3.23.3-.64.71-1.22,1.23-1.73.52-.51,1.08-.89,1.7-1.14.82-.33,1.77-.5,2.84-.5,1.94,0,3.5.57,4.66,1.73,1.16,1.15,1.75,2.76,1.75,4.81s-.58,3.63-1.74,4.78c-1.15,1.15-2.71,1.73-4.64,1.73s-3.52-.57-4.67-1.72c-1.15-1.15-1.74-2.72-1.74-4.73h0ZM37.21,57.88c0,1.43.34,2.51,1.03,3.25s1.56,1.1,2.63,1.1,1.93-.37,2.61-1.1,1.02-1.83,1.02-3.3-.33-2.52-1-3.23-1.54-1.07-2.64-1.07-1.98.36-2.65,1.08-1,1.81-1,3.26Z"/>
      <path class="cls-5" d="M49.54,64.2v-12.52h2.66v10.39h6.62v2.12h-9.28Z"/>
      <path class="cls-5" d="M60.77,64.2v-12.62h2.66v12.62s-2.66,0-2.66,0Z"/>
      <path class="cls-5" d="M65.55,57.97c0-1.29.2-2.36.6-3.23.3-.64.71-1.22,1.23-1.73s1.08-.89,1.7-1.14c.82-.33,1.77-.5,2.84-.5,1.94,0,3.5.57,4.66,1.73s1.75,2.76,1.75,4.81-.58,3.63-1.74,4.78c-1.15,1.15-2.71,1.73-4.64,1.73s-3.52-.57-4.67-1.72-1.74-2.72-1.74-4.73h0ZM68.29,57.88c0,1.43.34,2.51,1.03,3.25s1.56,1.1,2.63,1.1,1.93-.37,2.61-1.1,1.02-1.83,1.02-3.3-.33-2.52-1-3.23-1.54-1.07-2.64-1.07-1.98.36-2.65,1.08-1,1.81-1,3.26Z"/>
    </g>
  </g>
</svg>