<?xml version="1.0" standalone="no"?><!DOCTYPE svg PUBLIC "-//W3C//DTD SVG 1.1//EN" "http://www.w3.org/Graphics/SVG/1.1/DTD/svg11.dtd"><svg t="1739976582008" class="icon" viewBox="0 0 1024 1024" version="1.1" xmlns="http://www.w3.org/2000/svg" p-id="7995" xmlns:xlink="http://www.w3.org/1999/xlink" width="200" height="200"><path d="M334.592 587.1q-29.52 0.336-58.88-2.208v-216.22c11.232-0.768 24.8-1.152 41.856-1.28l25.216-0.1c73.568 0 114.976 37.92 114.976 106.24 0 69.216-47.008 113.536-123.136 113.536zM895.999 0h-768a128.006 128.006 0 0 0-128 128v768a128.006 128.006 0 0 0 128 128h768a128.006 128.006 0 0 0 128-128V128a128.006 128.006 0 0 0-128-128z m-249.6 888.8l-3.808 5.76c-10.752 4.9-27.872 7.84-44.288 7.84-52.48 0-96.672-20.224-126.24-55.808-35.2-40.576-87.52-118.144-136.7-205.824-28.32 0-38.912-0.224-52.608-0.9l-6.912-0.512v144.8c0 48.768 7.84 61.92 31.616 65.5l47.1 6.4 5.536 6.4V888.8l-6.656 6.4q-57.84-2.352-115.712-2.688c-24.448 0-49.888 0.64-79.584 1.632l-29.792 1.12-6.56-6.4V862.5l5.248-6.272 34.4-6.4c24.064-4.576 32-17.44 32-65.408V426.272c0-47.968-7.936-60.9-31.872-65.44l-34.463-6.432-5.5-6.176v-26.368l6.656-6.4q78.768 2.256 157.568-0.48c31.616-0.928 50.56-1.312 73.312-1.312 114.464 0 188.544 55.68 188.544 155.392 0 70.4-53.376 138.656-124.544 159.456 39.3 68.512 88.672 135.84 132.768 184.192 26.208 28.288 56.7 46.08 84.1 46.08l6.4 6.4z m223.617-586.464c0 19.36-0.352 28.576-1.44 38.816a172.382 172.382 0 0 1-5.76 30.688c-7.936 24.576-20.608 42.24-39.9 55.424-19.2 13.088-43.808 20.192-70.4 20.192q-40.848 0-69.376-18.912c-19.1-12.672-32.8-31.584-40.96-56.32a104.277 104.277 0 0 1-3.84-14.688 283.887 283.887 0 0 1-4.1-40.672q-1.008-32.3 0-64.64a292.573 292.573 0 0 1 4.192-40.608 99.836 99.836 0 0 1 3.808-14.688c8.192-24.8 21.888-43.648 40.992-56.32 18.976-12.672 42.24-18.944 69.472-18.944a136.629 136.629 0 0 1 38.048 4.96 112 112 0 0 1 30.432 13.728 101.581 101.581 0 0 1 22.912 20.48 117.932 117.932 0 0 1 15.456 24.352c3.1 5.536 1.92 11.52-4.48 15.36l-32.416 13.28c-5.984 3.328-12.032 1.152-14.976-4.736-7.936-14.56-13.568-21.536-22.016-26.88a55.247 55.247 0 0 0-32.9-8.672c-14.72 0-21.5 2.272-32.384 9.952a53.5 53.5 0 0 0-21.152 28.7 91.445 91.445 0 0 0-4.352 22.528 824.836 824.836 0 0 0 0 99.84 91.451 91.451 0 0 0 4.352 22.528 43.518 43.518 0 0 0 18.688 25.6 58.575 58.575 0 0 0 34.916 10.016 61.838 61.838 0 0 0 35.2-9.856 44.6 44.6 0 0 0 17.824-24.32l1.792-6.24a103.631 103.631 0 0 0 2.651-12.124c0.9-5.536 1.12-10.24 1.12-22.56h-49.371l-0.128-0.224c-6.528 0-10.88-4.352-10.88-10.88v-30.08c0-6.432 4.352-10.88 10.88-10.88h97.279c6.432 0 10.88 4.448 10.88 10.88z" fill="#00CCBB" p-id="7996"></path></svg>